<?xml version="1.0" encoding="UTF-8" standalone="no"?>
<!DOCTYPE svg PUBLIC "-//W3C//DTD SVG 1.1//EN"
 "http://www.w3.org/Graphics/SVG/1.1/DTD/svg11.dtd">
<!-- Generated by graphviz version 2.36.0 (20140111.2315)
 -->
<!-- Title: Git Pages: 1 -->
<svg width="124pt" height="104pt"
 viewBox="0.00 0.00 124.00 104.00" xmlns="http://www.w3.org/2000/svg" xmlns:xlink="http://www.w3.org/1999/xlink">
<g id="graph0" class="graph" transform="scale(1 1) rotate(0) translate(4 100)">
<title>Git</title>
<polygon fill="white" stroke="none" points="-4,4 -4,-100 120,-100 120,4 -4,4"/>
<!-- Node1 -->
<g id="node1" class="node"><title>Node1</title>
<polygon fill="#bfbfbf" stroke="black" points="0,-38.5 0,-57.5 30,-57.5 30,-38.5 0,-38.5"/>
<text text-anchor="middle" x="15" y="-45.5" font-family="Helvetica,sans-Serif" font-size="10.00">Git</text>
</g>
<!-- Node2 -->
<g id="node2" class="node"><title>Node2</title>
<g id="a_node2"><a xlink:href="../../d5/dee/src_2app_8js.html#a64d6f36c97d02f054c1f06b61c05d1d9" target="_top" xlink:title="add">
<polygon fill="white" stroke="black" points="73.5,-76.5 73.5,-95.5 108.5,-95.5 108.5,-76.5 73.5,-76.5"/>
<text text-anchor="middle" x="91" y="-83.5" font-family="Helvetica,sans-Serif" font-size="10.00">add</text>
</a>
</g>
</g>
<!-- Node1&#45;&gt;Node2 -->
<g id="edge1" class="edge"><title>Node1&#45;&gt;Node2</title>
<path fill="none" stroke="midnightblue" d="M30.2679,-55.3268C39.9146,-60.2805 52.9272,-66.9626 64.3443,-72.8255"/>
<polygon fill="midnightblue" stroke="midnightblue" points="62.956,-76.047 73.4505,-77.5016 66.1537,-69.82 62.956,-76.047"/>
</g>
<!-- Node3 -->
<g id="node3" class="node"><title>Node3</title>
<g id="a_node3"><a xlink:href="../../df/d1e/doxygen_8js.html#aeb88fdc6fe0f205153e8bc1278d042c0" target="_top" xlink:title="exists">
<polygon fill="white" stroke="black" points="69,-38.5 69,-57.5 113,-57.5 113,-38.5 69,-38.5"/>
<text text-anchor="middle" x="91" y="-45.5" font-family="Helvetica,sans-Serif" font-size="10.00">exists</text>
</a>
</g>
</g>
<!-- Node1&#45;&gt;Node3 -->
<g id="edge2" class="edge"><title>Node1&#45;&gt;Node3</title>
<path fill="none" stroke="midnightblue" d="M30.2679,-48C38.3725,-48 48.8527,-48 58.7667,-48"/>
<polygon fill="midnightblue" stroke="midnightblue" points="58.7698,-51.5001 68.7698,-48 58.7698,-44.5001 58.7698,-51.5001"/>
</g>
<!-- Node4 -->
<g id="node4" class="node"><title>Node4</title>
<g id="a_node4"><a xlink:href="../../d6/d73/repo_tracker_2_gruntfile_8js.html#a0a4fb57b95cbf433a91245aec894a823" target="_top" xlink:title="require">
<polygon fill="white" stroke="black" points="66,-0.5 66,-19.5 116,-19.5 116,-0.5 66,-0.5"/>
<text text-anchor="middle" x="91" y="-7.5" font-family="Helvetica,sans-Serif" font-size="10.00">require</text>
</a>
</g>
</g>
<!-- Node1&#45;&gt;Node4 -->
<g id="edge3" class="edge"><title>Node1&#45;&gt;Node4</title>
<path fill="none" stroke="midnightblue" d="M30.2679,-40.6732C39.2984,-36.036 51.2785,-29.884 62.1382,-24.3074"/>
<polygon fill="midnightblue" stroke="midnightblue" points="63.994,-27.289 71.2908,-19.6074 60.7963,-21.062 63.994,-27.289"/>
</g>
</g>
</svg>
