<?xml version="1.0" encoding="UTF-8" standalone="no"?>
<!DOCTYPE svg PUBLIC "-//W3C//DTD SVG 1.1//EN"
 "http://www.w3.org/Graphics/SVG/1.1/DTD/svg11.dtd">
<!-- Generated by graphviz version 2.36.0 (20140111.2315)
 -->
<!-- Title: setConfig Pages: 1 -->
<svg width="332pt" height="28pt"
 viewBox="0.00 0.00 332.00 28.00" xmlns="http://www.w3.org/2000/svg" xmlns:xlink="http://www.w3.org/1999/xlink">
<g id="graph0" class="graph" transform="scale(1 1) rotate(0) translate(4 24)">
<title>setConfig</title>
<polygon fill="white" stroke="none" points="-4,4 -4,-24 328,-24 328,4 -4,4"/>
<!-- Node1 -->
<g id="node1" class="node"><title>Node1</title>
<polygon fill="#bfbfbf" stroke="black" points="0,-0.5 0,-19.5 62,-19.5 62,-0.5 0,-0.5"/>
<text text-anchor="middle" x="31" y="-7.5" font-family="Helvetica,sans-Serif" font-size="10.00">setConfig</text>
</g>
<!-- Node2 -->
<g id="node2" class="node"><title>Node2</title>
<g id="a_node2"><a xlink:href="../../df/d1e/doxygen_8js.html#ab25d060faedadda42dd21cbf22aed165" target="_top" xlink:title="configureDoxy">
<polygon fill="white" stroke="black" points="98.5,-0.5 98.5,-19.5 183.5,-19.5 183.5,-0.5 98.5,-0.5"/>
<text text-anchor="middle" x="141" y="-7.5" font-family="Helvetica,sans-Serif" font-size="10.00">configureDoxy</text>
</a>
</g>
</g>
<!-- Node1&#45;&gt;Node2 -->
<g id="edge1" class="edge"><title>Node1&#45;&gt;Node2</title>
<path fill="none" stroke="midnightblue" d="M72.1975,-10C80.7412,-10 89.779,-10 98.3747,-10"/>
<polygon fill="midnightblue" stroke="midnightblue" points="72.0841,-6.5001 62.084,-10 72.084,-13.5001 72.0841,-6.5001"/>
</g>
<!-- Node3 -->
<g id="node3" class="node"><title>Node3</title>
<g id="a_node3"><a xlink:href="../../df/d1e/doxygen_8js.html#a85a780309484e166f8eb00319236faba" target="_top" xlink:title="processRepository">
<polygon fill="white" stroke="black" points="220,-0.5 220,-19.5 324,-19.5 324,-0.5 220,-0.5"/>
<text text-anchor="middle" x="272" y="-7.5" font-family="Helvetica,sans-Serif" font-size="10.00">processRepository</text>
</a>
</g>
</g>
<!-- Node2&#45;&gt;Node3 -->
<g id="edge2" class="edge"><title>Node2&#45;&gt;Node3</title>
<path fill="none" stroke="midnightblue" d="M193.729,-10C202.253,-10 211.088,-10 219.605,-10"/>
<polygon fill="midnightblue" stroke="midnightblue" points="193.527,-6.5001 183.526,-10 193.526,-13.5001 193.527,-6.5001"/>
</g>
</g>
</svg>
