<?xml version="1.0" encoding="UTF-8" standalone="no"?>
<!DOCTYPE svg PUBLIC "-//W3C//DTD SVG 1.1//EN"
 "http://www.w3.org/Graphics/SVG/1.1/DTD/svg11.dtd">
<!-- Generated by graphviz version 2.36.0 (20140111.2315)
 -->
<!-- Title: replaceVariables Pages: 1 -->
<svg width="614pt" height="28pt"
 viewBox="0.00 0.00 614.00 28.00" xmlns="http://www.w3.org/2000/svg" xmlns:xlink="http://www.w3.org/1999/xlink">
<g id="graph0" class="graph" transform="scale(1 1) rotate(0) translate(4 24)">
<title>replaceVariables</title>
<polygon fill="white" stroke="none" points="-4,4 -4,-24 610,-24 610,4 -4,4"/>
<!-- Node1 -->
<g id="node1" class="node"><title>Node1</title>
<polygon fill="#bfbfbf" stroke="black" points="0.5,-0.5 0.5,-19.5 95.5,-19.5 95.5,-0.5 0.5,-0.5"/>
<text text-anchor="middle" x="48" y="-7.5" font-family="Helvetica,sans-Serif" font-size="10.00">replaceVariables</text>
</g>
<!-- Node2 -->
<g id="node2" class="node"><title>Node2</title>
<g id="a_node2"><a xlink:href="../../df/d1e/doxygen_8js.html#a29484db4ebe37588414ecd694fb7ec67" target="_top" xlink:title="recursiveConfigCopy">
<polygon fill="white" stroke="black" points="132,-0.5 132,-19.5 246,-19.5 246,-0.5 132,-0.5"/>
<text text-anchor="middle" x="189" y="-7.5" font-family="Helvetica,sans-Serif" font-size="10.00">recursiveConfigCopy</text>
</a>
</g>
</g>
<!-- Node1&#45;&gt;Node2 -->
<g id="edge1" class="edge"><title>Node1&#45;&gt;Node2</title>
<path fill="none" stroke="midnightblue" d="M105.857,-10C114.343,-10 123.088,-10 131.565,-10"/>
<polygon fill="midnightblue" stroke="midnightblue" points="105.672,-6.5001 95.6717,-10 105.672,-13.5001 105.672,-6.5001"/>
</g>
<!-- Node3 -->
<g id="node3" class="node"><title>Node3</title>
<g id="a_node3"><a xlink:href="../../df/d1e/doxygen_8js.html#a036e4341956fe783542dce818c3afe41" target="_top" xlink:title="setConfig">
<polygon fill="white" stroke="black" points="282,-0.5 282,-19.5 344,-19.5 344,-0.5 282,-0.5"/>
<text text-anchor="middle" x="313" y="-7.5" font-family="Helvetica,sans-Serif" font-size="10.00">setConfig</text>
</a>
</g>
</g>
<!-- Node2&#45;&gt;Node3 -->
<g id="edge2" class="edge"><title>Node2&#45;&gt;Node3</title>
<path fill="none" stroke="midnightblue" d="M256.195,-10C265.204,-10 274.061,-10 281.972,-10"/>
<polygon fill="midnightblue" stroke="midnightblue" points="256.001,-6.5001 246.001,-10 256.001,-13.5001 256.001,-6.5001"/>
</g>
<!-- Node4 -->
<g id="node4" class="node"><title>Node4</title>
<g id="a_node4"><a xlink:href="../../df/d1e/doxygen_8js.html#ab25d060faedadda42dd21cbf22aed165" target="_top" xlink:title="configureDoxy">
<polygon fill="white" stroke="black" points="380.5,-0.5 380.5,-19.5 465.5,-19.5 465.5,-0.5 380.5,-0.5"/>
<text text-anchor="middle" x="423" y="-7.5" font-family="Helvetica,sans-Serif" font-size="10.00">configureDoxy</text>
</a>
</g>
</g>
<!-- Node3&#45;&gt;Node4 -->
<g id="edge3" class="edge"><title>Node3&#45;&gt;Node4</title>
<path fill="none" stroke="midnightblue" d="M354.197,-10C362.741,-10 371.779,-10 380.375,-10"/>
<polygon fill="midnightblue" stroke="midnightblue" points="354.084,-6.5001 344.084,-10 354.084,-13.5001 354.084,-6.5001"/>
</g>
<!-- Node5 -->
<g id="node5" class="node"><title>Node5</title>
<g id="a_node5"><a xlink:href="../../df/d1e/doxygen_8js.html#a85a780309484e166f8eb00319236faba" target="_top" xlink:title="processRepository">
<polygon fill="white" stroke="black" points="502,-0.5 502,-19.5 606,-19.5 606,-0.5 502,-0.5"/>
<text text-anchor="middle" x="554" y="-7.5" font-family="Helvetica,sans-Serif" font-size="10.00">processRepository</text>
</a>
</g>
</g>
<!-- Node4&#45;&gt;Node5 -->
<g id="edge4" class="edge"><title>Node4&#45;&gt;Node5</title>
<path fill="none" stroke="midnightblue" d="M475.729,-10C484.253,-10 493.088,-10 501.605,-10"/>
<polygon fill="midnightblue" stroke="midnightblue" points="475.527,-6.5001 465.526,-10 475.526,-13.5001 475.527,-6.5001"/>
</g>
</g>
</svg>
