<?xml version="1.0" encoding="UTF-8" standalone="no"?>
<!DOCTYPE svg PUBLIC "-//W3C//DTD SVG 1.1//EN"
 "http://www.w3.org/Graphics/SVG/1.1/DTD/svg11.dtd">
<!-- Generated by graphviz version 2.36.0 (20140111.2315)
 -->
<!-- Title: processRepository Pages: 1 -->
<svg width="634pt" height="104pt"
 viewBox="0.00 0.00 634.00 104.00" xmlns="http://www.w3.org/2000/svg" xmlns:xlink="http://www.w3.org/1999/xlink">
<g id="graph0" class="graph" transform="scale(1 1) rotate(0) translate(4 100)">
<title>processRepository</title>
<polygon fill="white" stroke="none" points="-4,4 -4,-100 630,-100 630,4 -4,4"/>
<!-- Node1 -->
<g id="node1" class="node"><title>Node1</title>
<polygon fill="#bfbfbf" stroke="black" points="0,-19.5 0,-38.5 104,-38.5 104,-19.5 0,-19.5"/>
<text text-anchor="middle" x="52" y="-26.5" font-family="Helvetica,sans-Serif" font-size="10.00">processRepository</text>
</g>
<!-- Node2 -->
<g id="node2" class="node"><title>Node2</title>
<g id="a_node2"><a xlink:href="../../df/d1e/doxygen_8js.html#ab25d060faedadda42dd21cbf22aed165" target="_top" xlink:title="configureDoxy">
<polygon fill="white" stroke="black" points="140.5,-38.5 140.5,-57.5 225.5,-57.5 225.5,-38.5 140.5,-38.5"/>
<text text-anchor="middle" x="183" y="-45.5" font-family="Helvetica,sans-Serif" font-size="10.00">configureDoxy</text>
</a>
</g>
</g>
<!-- Node1&#45;&gt;Node2 -->
<g id="edge1" class="edge"><title>Node1&#45;&gt;Node2</title>
<path fill="none" stroke="midnightblue" d="M104.355,-36.5639C112.94,-37.8284 121.85,-39.1406 130.44,-40.4059"/>
<polygon fill="midnightblue" stroke="midnightblue" points="129.935,-43.8692 140.339,-41.8638 130.955,-36.944 129.935,-43.8692"/>
</g>
<!-- Node7 -->
<g id="node7" class="node"><title>Node7</title>
<g id="a_node7"><a xlink:href="../../df/d1e/doxygen_8js.html#a477763906d5e048aeed62e954c12b3e8" target="_top" xlink:title="runDoxygen">
<polygon fill="white" stroke="black" points="146,-0.5 146,-19.5 220,-19.5 220,-0.5 146,-0.5"/>
<text text-anchor="middle" x="183" y="-7.5" font-family="Helvetica,sans-Serif" font-size="10.00">runDoxygen</text>
</a>
</g>
</g>
<!-- Node1&#45;&gt;Node7 -->
<g id="edge6" class="edge"><title>Node1&#45;&gt;Node7</title>
<path fill="none" stroke="midnightblue" d="M104.355,-21.4361C114.789,-19.8993 125.702,-18.292 135.938,-16.7843"/>
<polygon fill="midnightblue" stroke="midnightblue" points="136.524,-20.2359 145.907,-15.316 135.504,-13.3106 136.524,-20.2359"/>
</g>
<!-- Node3 -->
<g id="node3" class="node"><title>Node3</title>
<g id="a_node3"><a xlink:href="../../df/d1e/doxygen_8js.html#a036e4341956fe783542dce818c3afe41" target="_top" xlink:title="setConfig">
<polygon fill="white" stroke="black" points="272,-76.5 272,-95.5 334,-95.5 334,-76.5 272,-76.5"/>
<text text-anchor="middle" x="303" y="-83.5" font-family="Helvetica,sans-Serif" font-size="10.00">setConfig</text>
</a>
</g>
</g>
<!-- Node2&#45;&gt;Node3 -->
<g id="edge2" class="edge"><title>Node2&#45;&gt;Node3</title>
<path fill="none" stroke="midnightblue" d="M213.776,-57.589C228.59,-62.3594 246.691,-68.1888 262.634,-73.3229"/>
<polygon fill="midnightblue" stroke="midnightblue" points="261.642,-76.6802 272.233,-76.4141 263.787,-70.0172 261.642,-76.6802"/>
</g>
<!-- Node6 -->
<g id="node6" class="node"><title>Node6</title>
<g id="a_node6"><a xlink:href="../../df/d1e/doxygen_8js.html#a34099cde877b52e2388f4fbdd0f300a7" target="_top" xlink:title="setupDoxyfile">
<polygon fill="white" stroke="black" points="262.5,-38.5 262.5,-57.5 343.5,-57.5 343.5,-38.5 262.5,-38.5"/>
<text text-anchor="middle" x="303" y="-45.5" font-family="Helvetica,sans-Serif" font-size="10.00">setupDoxyfile</text>
</a>
</g>
</g>
<!-- Node2&#45;&gt;Node6 -->
<g id="edge5" class="edge"><title>Node2&#45;&gt;Node6</title>
<path fill="none" stroke="midnightblue" d="M225.602,-48C234.187,-48 243.311,-48 252.154,-48"/>
<polygon fill="midnightblue" stroke="midnightblue" points="252.356,-51.5001 262.356,-48 252.356,-44.5001 252.356,-51.5001"/>
</g>
<!-- Node4 -->
<g id="node4" class="node"><title>Node4</title>
<g id="a_node4"><a xlink:href="../../df/d1e/doxygen_8js.html#a29484db4ebe37588414ecd694fb7ec67" target="_top" xlink:title="recursiveConfigCopy">
<polygon fill="white" stroke="black" points="380,-76.5 380,-95.5 494,-95.5 494,-76.5 380,-76.5"/>
<text text-anchor="middle" x="437" y="-83.5" font-family="Helvetica,sans-Serif" font-size="10.00">recursiveConfigCopy</text>
</a>
</g>
</g>
<!-- Node3&#45;&gt;Node4 -->
<g id="edge3" class="edge"><title>Node3&#45;&gt;Node4</title>
<path fill="none" stroke="midnightblue" d="M334.283,-86C344.868,-86 357.207,-86 369.566,-86"/>
<polygon fill="midnightblue" stroke="midnightblue" points="369.914,-89.5001 379.914,-86 369.914,-82.5001 369.914,-89.5001"/>
</g>
<!-- Node5 -->
<g id="node5" class="node"><title>Node5</title>
<g id="a_node5"><a xlink:href="../../df/d1e/doxygen_8js.html#a0e8be9c46f7c39b6f275c64b9c2b616e" target="_top" xlink:title="replaceVariables">
<polygon fill="white" stroke="black" points="530.5,-76.5 530.5,-95.5 625.5,-95.5 625.5,-76.5 530.5,-76.5"/>
<text text-anchor="middle" x="578" y="-83.5" font-family="Helvetica,sans-Serif" font-size="10.00">replaceVariables</text>
</a>
</g>
</g>
<!-- Node4&#45;&gt;Node5 -->
<g id="edge4" class="edge"><title>Node4&#45;&gt;Node5</title>
<path fill="none" stroke="midnightblue" d="M494.136,-86C502.801,-86 511.754,-86 520.428,-86"/>
<polygon fill="midnightblue" stroke="midnightblue" points="520.449,-89.5001 530.449,-86 520.449,-82.5001 520.449,-89.5001"/>
</g>
<!-- Node8 -->
<g id="node8" class="node"><title>Node8</title>
<g id="a_node8"><a xlink:href="../../d6/d73/repo_tracker_2_gruntfile_8js.html#a0a4fb57b95cbf433a91245aec894a823" target="_top" xlink:title="require">
<polygon fill="white" stroke="black" points="278,-0.5 278,-19.5 328,-19.5 328,-0.5 278,-0.5"/>
<text text-anchor="middle" x="303" y="-7.5" font-family="Helvetica,sans-Serif" font-size="10.00">require</text>
</a>
</g>
</g>
<!-- Node7&#45;&gt;Node8 -->
<g id="edge7" class="edge"><title>Node7&#45;&gt;Node8</title>
<path fill="none" stroke="midnightblue" d="M220.045,-10C235.098,-10 252.512,-10 267.407,-10"/>
<polygon fill="midnightblue" stroke="midnightblue" points="267.738,-13.5001 277.738,-10 267.738,-6.5001 267.738,-13.5001"/>
</g>
</g>
</svg>
