<?xml version="1.0" encoding="UTF-8" standalone="no"?>
<!DOCTYPE svg PUBLIC "-//W3C//DTD SVG 1.1//EN"
 "http://www.w3.org/Graphics/SVG/1.1/DTD/svg11.dtd">
<!-- Generated by graphviz version 2.36.0 (20140111.2315)
 -->
<!-- Title: configureDoxy Pages: 1 -->
<svg width="494pt" height="66pt"
 viewBox="0.00 0.00 494.00 66.00" xmlns="http://www.w3.org/2000/svg" xmlns:xlink="http://www.w3.org/1999/xlink">
<g id="graph0" class="graph" transform="scale(1 1) rotate(0) translate(4 62)">
<title>configureDoxy</title>
<polygon fill="white" stroke="none" points="-4,4 -4,-62 490,-62 490,4 -4,4"/>
<!-- Node1 -->
<g id="node1" class="node"><title>Node1</title>
<polygon fill="#bfbfbf" stroke="black" points="0.5,-19.5 0.5,-38.5 85.5,-38.5 85.5,-19.5 0.5,-19.5"/>
<text text-anchor="middle" x="43" y="-26.5" font-family="Helvetica,sans-Serif" font-size="10.00">configureDoxy</text>
</g>
<!-- Node2 -->
<g id="node2" class="node"><title>Node2</title>
<g id="a_node2"><a xlink:href="../../df/d1e/doxygen_8js.html#a036e4341956fe783542dce818c3afe41" target="_top" xlink:title="setConfig">
<polygon fill="white" stroke="black" points="132,-38.5 132,-57.5 194,-57.5 194,-38.5 132,-38.5"/>
<text text-anchor="middle" x="163" y="-45.5" font-family="Helvetica,sans-Serif" font-size="10.00">setConfig</text>
</a>
</g>
</g>
<!-- Node1&#45;&gt;Node2 -->
<g id="edge1" class="edge"><title>Node1&#45;&gt;Node2</title>
<path fill="none" stroke="midnightblue" d="M85.6024,-35.6987C97.406,-37.5993 110.23,-39.6641 121.94,-41.5497"/>
<polygon fill="midnightblue" stroke="midnightblue" points="121.462,-45.0176 131.891,-43.1519 122.574,-38.1066 121.462,-45.0176"/>
</g>
<!-- Node5 -->
<g id="node5" class="node"><title>Node5</title>
<g id="a_node5"><a xlink:href="../../df/d1e/doxygen_8js.html#a34099cde877b52e2388f4fbdd0f300a7" target="_top" xlink:title="setupDoxyfile">
<polygon fill="white" stroke="black" points="122.5,-0.5 122.5,-19.5 203.5,-19.5 203.5,-0.5 122.5,-0.5"/>
<text text-anchor="middle" x="163" y="-7.5" font-family="Helvetica,sans-Serif" font-size="10.00">setupDoxyfile</text>
</a>
</g>
</g>
<!-- Node1&#45;&gt;Node5 -->
<g id="edge4" class="edge"><title>Node1&#45;&gt;Node5</title>
<path fill="none" stroke="midnightblue" d="M85.6024,-22.3013C94.2802,-20.904 103.509,-19.418 112.442,-17.9797"/>
<polygon fill="midnightblue" stroke="midnightblue" points="113.04,-21.4286 122.356,-16.3833 111.927,-14.5176 113.04,-21.4286"/>
</g>
<!-- Node3 -->
<g id="node3" class="node"><title>Node3</title>
<g id="a_node3"><a xlink:href="../../df/d1e/doxygen_8js.html#a29484db4ebe37588414ecd694fb7ec67" target="_top" xlink:title="recursiveConfigCopy">
<polygon fill="white" stroke="black" points="240,-38.5 240,-57.5 354,-57.5 354,-38.5 240,-38.5"/>
<text text-anchor="middle" x="297" y="-45.5" font-family="Helvetica,sans-Serif" font-size="10.00">recursiveConfigCopy</text>
</a>
</g>
</g>
<!-- Node2&#45;&gt;Node3 -->
<g id="edge2" class="edge"><title>Node2&#45;&gt;Node3</title>
<path fill="none" stroke="midnightblue" d="M194.283,-48C204.868,-48 217.207,-48 229.566,-48"/>
<polygon fill="midnightblue" stroke="midnightblue" points="229.914,-51.5001 239.914,-48 229.914,-44.5001 229.914,-51.5001"/>
</g>
<!-- Node4 -->
<g id="node4" class="node"><title>Node4</title>
<g id="a_node4"><a xlink:href="../../df/d1e/doxygen_8js.html#a0e8be9c46f7c39b6f275c64b9c2b616e" target="_top" xlink:title="replaceVariables">
<polygon fill="white" stroke="black" points="390.5,-38.5 390.5,-57.5 485.5,-57.5 485.5,-38.5 390.5,-38.5"/>
<text text-anchor="middle" x="438" y="-45.5" font-family="Helvetica,sans-Serif" font-size="10.00">replaceVariables</text>
</a>
</g>
</g>
<!-- Node3&#45;&gt;Node4 -->
<g id="edge3" class="edge"><title>Node3&#45;&gt;Node4</title>
<path fill="none" stroke="midnightblue" d="M354.136,-48C362.801,-48 371.754,-48 380.428,-48"/>
<polygon fill="midnightblue" stroke="midnightblue" points="380.449,-51.5001 390.449,-48 380.449,-44.5001 380.449,-51.5001"/>
</g>
</g>
</svg>
