<?xml version="1.0" encoding="UTF-8" standalone="no"?>
<!DOCTYPE svg PUBLIC "-//W3C//DTD SVG 1.1//EN"
 "http://www.w3.org/Graphics/SVG/1.1/DTD/svg11.dtd">
<!-- Generated by graphviz version 2.36.0 (20140111.2315)
 -->
<!-- Title: setupDoxyfile Pages: 1 -->
<svg width="352pt" height="28pt"
 viewBox="0.00 0.00 352.00 28.00" xmlns="http://www.w3.org/2000/svg" xmlns:xlink="http://www.w3.org/1999/xlink">
<g id="graph0" class="graph" transform="scale(1 1) rotate(0) translate(4 24)">
<title>setupDoxyfile</title>
<polygon fill="white" stroke="none" points="-4,4 -4,-24 348,-24 348,4 -4,4"/>
<!-- Node1 -->
<g id="node1" class="node"><title>Node1</title>
<polygon fill="#bfbfbf" stroke="black" points="0.5,-0.5 0.5,-19.5 81.5,-19.5 81.5,-0.5 0.5,-0.5"/>
<text text-anchor="middle" x="41" y="-7.5" font-family="Helvetica,sans-Serif" font-size="10.00">setupDoxyfile</text>
</g>
<!-- Node2 -->
<g id="node2" class="node"><title>Node2</title>
<g id="a_node2"><a xlink:href="../../df/d1e/doxygen_8js.html#ab25d060faedadda42dd21cbf22aed165" target="_top" xlink:title="configureDoxy">
<polygon fill="white" stroke="black" points="118.5,-0.5 118.5,-19.5 203.5,-19.5 203.5,-0.5 118.5,-0.5"/>
<text text-anchor="middle" x="161" y="-7.5" font-family="Helvetica,sans-Serif" font-size="10.00">configureDoxy</text>
</a>
</g>
</g>
<!-- Node1&#45;&gt;Node2 -->
<g id="edge1" class="edge"><title>Node1&#45;&gt;Node2</title>
<path fill="none" stroke="midnightblue" d="M91.7898,-10C100.604,-10 109.699,-10 118.263,-10"/>
<polygon fill="midnightblue" stroke="midnightblue" points="91.6206,-6.5001 81.6206,-10 91.6205,-13.5001 91.6206,-6.5001"/>
</g>
<!-- Node3 -->
<g id="node3" class="node"><title>Node3</title>
<g id="a_node3"><a xlink:href="../../df/d1e/doxygen_8js.html#a85a780309484e166f8eb00319236faba" target="_top" xlink:title="processRepository">
<polygon fill="white" stroke="black" points="240,-0.5 240,-19.5 344,-19.5 344,-0.5 240,-0.5"/>
<text text-anchor="middle" x="292" y="-7.5" font-family="Helvetica,sans-Serif" font-size="10.00">processRepository</text>
</a>
</g>
</g>
<!-- Node2&#45;&gt;Node3 -->
<g id="edge2" class="edge"><title>Node2&#45;&gt;Node3</title>
<path fill="none" stroke="midnightblue" d="M213.729,-10C222.253,-10 231.088,-10 239.605,-10"/>
<polygon fill="midnightblue" stroke="midnightblue" points="213.527,-6.5001 203.526,-10 213.526,-13.5001 213.527,-6.5001"/>
</g>
</g>
</svg>
