<?xml version="1.0" encoding="UTF-8" standalone="no"?>
<!DOCTYPE svg PUBLIC "-//W3C//DTD SVG 1.1//EN"
 "http://www.w3.org/Graphics/SVG/1.1/DTD/svg11.dtd">
<!-- Generated by graphviz version 2.36.0 (20140111.2315)
 -->
<!-- Title: processRepository Pages: 1 -->
<svg width="664pt" height="66pt"
 viewBox="0.00 0.00 664.00 66.00" xmlns="http://www.w3.org/2000/svg" xmlns:xlink="http://www.w3.org/1999/xlink">
<g id="graph0" class="graph" transform="scale(1 1) rotate(0) translate(4 62)">
<title>processRepository</title>
<polygon fill="white" stroke="none" points="-4,4 -4,-62 660,-62 660,4 -4,4"/>
<!-- Node1 -->
<g id="node1" class="node"><title>Node1</title>
<polygon fill="#bfbfbf" stroke="black" points="0,-19.5 0,-38.5 104,-38.5 104,-19.5 0,-19.5"/>
<text text-anchor="middle" x="52" y="-26.5" font-family="Helvetica,sans-Serif" font-size="10.00">processRepository</text>
</g>
<!-- Node2 -->
<g id="node2" class="node"><title>Node2</title>
<g id="a_node2"><a xlink:href="../../dc/d18/gh-pages_8js.html#a0c3cc40935cb8922a0d73e784c0d8f0a" target="_top" xlink:title="configureGHPages">
<polygon fill="white" stroke="black" points="140,-19.5 140,-38.5 244,-38.5 244,-19.5 140,-19.5"/>
<text text-anchor="middle" x="192" y="-26.5" font-family="Helvetica,sans-Serif" font-size="10.00">configureGHPages</text>
</a>
</g>
</g>
<!-- Node1&#45;&gt;Node2 -->
<g id="edge1" class="edge"><title>Node1&#45;&gt;Node2</title>
<path fill="none" stroke="midnightblue" d="M104.386,-29C112.558,-29 121.083,-29 129.46,-29"/>
<polygon fill="midnightblue" stroke="midnightblue" points="129.571,-32.5001 139.571,-29 129.571,-25.5001 129.571,-32.5001"/>
</g>
<!-- Node3 -->
<g id="node3" class="node"><title>Node3</title>
<g id="a_node3"><a xlink:href="../../dc/d18/gh-pages_8js.html#a930d52782a31538f182efccdf5abe7ac" target="_top" xlink:title="generatePages">
<polygon fill="white" stroke="black" points="282.5,-38.5 282.5,-57.5 371.5,-57.5 371.5,-38.5 282.5,-38.5"/>
<text text-anchor="middle" x="327" y="-45.5" font-family="Helvetica,sans-Serif" font-size="10.00">generatePages</text>
</a>
</g>
</g>
<!-- Node2&#45;&gt;Node3 -->
<g id="edge2" class="edge"><title>Node2&#45;&gt;Node3</title>
<path fill="none" stroke="midnightblue" d="M244.041,-36.2916C253.294,-37.6134 262.97,-38.9957 272.297,-40.3281"/>
<polygon fill="midnightblue" stroke="midnightblue" points="271.849,-43.7996 282.244,-41.7491 272.839,-36.87 271.849,-43.7996"/>
</g>
<!-- Node4 -->
<g id="node4" class="node"><title>Node4</title>
<g id="a_node4"><a xlink:href="../../dc/d18/gh-pages_8js.html#a3842b26b063b5c4ec2c8eff339ee9235" target="_top" xlink:title="setPageContent">
<polygon fill="white" stroke="black" points="280.5,-0.5 280.5,-19.5 373.5,-19.5 373.5,-0.5 280.5,-0.5"/>
<text text-anchor="middle" x="327" y="-7.5" font-family="Helvetica,sans-Serif" font-size="10.00">setPageContent</text>
</a>
</g>
</g>
<!-- Node2&#45;&gt;Node4 -->
<g id="edge3" class="edge"><title>Node2&#45;&gt;Node4</title>
<path fill="none" stroke="midnightblue" d="M244.041,-21.7084C252.571,-20.4899 261.459,-19.2201 270.103,-17.9853"/>
<polygon fill="midnightblue" stroke="midnightblue" points="270.696,-21.4361 280.101,-16.557 269.706,-14.5065 270.696,-21.4361"/>
</g>
<!-- Node5 -->
<g id="node5" class="node"><title>Node5</title>
<g id="a_node5"><a xlink:href="../../dc/d18/gh-pages_8js.html#a29484db4ebe37588414ecd694fb7ec67" target="_top" xlink:title="recursiveConfigCopy">
<polygon fill="white" stroke="black" points="410,-0.5 410,-19.5 524,-19.5 524,-0.5 410,-0.5"/>
<text text-anchor="middle" x="467" y="-7.5" font-family="Helvetica,sans-Serif" font-size="10.00">recursiveConfigCopy</text>
</a>
</g>
</g>
<!-- Node4&#45;&gt;Node5 -->
<g id="edge4" class="edge"><title>Node4&#45;&gt;Node5</title>
<path fill="none" stroke="midnightblue" d="M373.569,-10C381.92,-10 390.791,-10 399.605,-10"/>
<polygon fill="midnightblue" stroke="midnightblue" points="399.892,-13.5001 409.892,-10 399.892,-6.5001 399.892,-13.5001"/>
</g>
<!-- Node6 -->
<g id="node6" class="node"><title>Node6</title>
<g id="a_node6"><a xlink:href="../../dc/d18/gh-pages_8js.html#a0e8be9c46f7c39b6f275c64b9c2b616e" target="_top" xlink:title="replaceVariables">
<polygon fill="white" stroke="black" points="560.5,-0.5 560.5,-19.5 655.5,-19.5 655.5,-0.5 560.5,-0.5"/>
<text text-anchor="middle" x="608" y="-7.5" font-family="Helvetica,sans-Serif" font-size="10.00">replaceVariables</text>
</a>
</g>
</g>
<!-- Node5&#45;&gt;Node6 -->
<g id="edge5" class="edge"><title>Node5&#45;&gt;Node6</title>
<path fill="none" stroke="midnightblue" d="M524.136,-10C532.801,-10 541.754,-10 550.428,-10"/>
<polygon fill="midnightblue" stroke="midnightblue" points="550.449,-13.5001 560.449,-10 550.449,-6.5001 550.449,-13.5001"/>
</g>
</g>
</svg>
