<?xml version="1.0" encoding="UTF-8" standalone="no"?>
<!DOCTYPE svg PUBLIC "-//W3C//DTD SVG 1.1//EN"
 "http://www.w3.org/Graphics/SVG/1.1/DTD/svg11.dtd">
<!-- Generated by graphviz version 2.36.0 (20140111.2315)
 -->
<!-- Title: configureGHPages Pages: 1 -->
<svg width="524pt" height="66pt"
 viewBox="0.00 0.00 524.00 66.00" xmlns="http://www.w3.org/2000/svg" xmlns:xlink="http://www.w3.org/1999/xlink">
<g id="graph0" class="graph" transform="scale(1 1) rotate(0) translate(4 62)">
<title>configureGHPages</title>
<polygon fill="white" stroke="none" points="-4,4 -4,-62 520,-62 520,4 -4,4"/>
<!-- Node1 -->
<g id="node1" class="node"><title>Node1</title>
<polygon fill="#bfbfbf" stroke="black" points="0,-19.5 0,-38.5 104,-38.5 104,-19.5 0,-19.5"/>
<text text-anchor="middle" x="52" y="-26.5" font-family="Helvetica,sans-Serif" font-size="10.00">configureGHPages</text>
</g>
<!-- Node2 -->
<g id="node2" class="node"><title>Node2</title>
<g id="a_node2"><a xlink:href="../../dc/d18/gh-pages_8js.html#a930d52782a31538f182efccdf5abe7ac" target="_top" xlink:title="generatePages">
<polygon fill="white" stroke="black" points="142.5,-38.5 142.5,-57.5 231.5,-57.5 231.5,-38.5 142.5,-38.5"/>
<text text-anchor="middle" x="187" y="-45.5" font-family="Helvetica,sans-Serif" font-size="10.00">generatePages</text>
</a>
</g>
</g>
<!-- Node1&#45;&gt;Node2 -->
<g id="edge1" class="edge"><title>Node1&#45;&gt;Node2</title>
<path fill="none" stroke="midnightblue" d="M104.041,-36.2916C113.294,-37.6134 122.97,-38.9957 132.297,-40.3281"/>
<polygon fill="midnightblue" stroke="midnightblue" points="131.849,-43.7996 142.244,-41.7491 132.839,-36.87 131.849,-43.7996"/>
</g>
<!-- Node3 -->
<g id="node3" class="node"><title>Node3</title>
<g id="a_node3"><a xlink:href="../../dc/d18/gh-pages_8js.html#a3842b26b063b5c4ec2c8eff339ee9235" target="_top" xlink:title="setPageContent">
<polygon fill="white" stroke="black" points="140.5,-0.5 140.5,-19.5 233.5,-19.5 233.5,-0.5 140.5,-0.5"/>
<text text-anchor="middle" x="187" y="-7.5" font-family="Helvetica,sans-Serif" font-size="10.00">setPageContent</text>
</a>
</g>
</g>
<!-- Node1&#45;&gt;Node3 -->
<g id="edge2" class="edge"><title>Node1&#45;&gt;Node3</title>
<path fill="none" stroke="midnightblue" d="M104.041,-21.7084C112.571,-20.4899 121.459,-19.2201 130.103,-17.9853"/>
<polygon fill="midnightblue" stroke="midnightblue" points="130.696,-21.4361 140.101,-16.557 129.706,-14.5065 130.696,-21.4361"/>
</g>
<!-- Node4 -->
<g id="node4" class="node"><title>Node4</title>
<g id="a_node4"><a xlink:href="../../dc/d18/gh-pages_8js.html#a29484db4ebe37588414ecd694fb7ec67" target="_top" xlink:title="recursiveConfigCopy">
<polygon fill="white" stroke="black" points="270,-0.5 270,-19.5 384,-19.5 384,-0.5 270,-0.5"/>
<text text-anchor="middle" x="327" y="-7.5" font-family="Helvetica,sans-Serif" font-size="10.00">recursiveConfigCopy</text>
</a>
</g>
</g>
<!-- Node3&#45;&gt;Node4 -->
<g id="edge3" class="edge"><title>Node3&#45;&gt;Node4</title>
<path fill="none" stroke="midnightblue" d="M233.569,-10C241.92,-10 250.791,-10 259.605,-10"/>
<polygon fill="midnightblue" stroke="midnightblue" points="259.892,-13.5001 269.892,-10 259.892,-6.5001 259.892,-13.5001"/>
</g>
<!-- Node5 -->
<g id="node5" class="node"><title>Node5</title>
<g id="a_node5"><a xlink:href="../../dc/d18/gh-pages_8js.html#a0e8be9c46f7c39b6f275c64b9c2b616e" target="_top" xlink:title="replaceVariables">
<polygon fill="white" stroke="black" points="420.5,-0.5 420.5,-19.5 515.5,-19.5 515.5,-0.5 420.5,-0.5"/>
<text text-anchor="middle" x="468" y="-7.5" font-family="Helvetica,sans-Serif" font-size="10.00">replaceVariables</text>
</a>
</g>
</g>
<!-- Node4&#45;&gt;Node5 -->
<g id="edge4" class="edge"><title>Node4&#45;&gt;Node5</title>
<path fill="none" stroke="midnightblue" d="M384.136,-10C392.801,-10 401.754,-10 410.428,-10"/>
<polygon fill="midnightblue" stroke="midnightblue" points="410.449,-13.5001 420.449,-10 410.449,-6.5001 410.449,-13.5001"/>
</g>
</g>
</svg>
