<?xml version="1.0" encoding="UTF-8" standalone="no"?>
<!DOCTYPE svg PUBLIC "-//W3C//DTD SVG 1.1//EN"
 "http://www.w3.org/Graphics/SVG/1.1/DTD/svg11.dtd">
<!-- Generated by graphviz version 2.36.0 (20140111.2315)
 -->
<!-- Title: generatePages Pages: 1 -->
<svg width="378pt" height="28pt"
 viewBox="0.00 0.00 378.00 28.00" xmlns="http://www.w3.org/2000/svg" xmlns:xlink="http://www.w3.org/1999/xlink">
<g id="graph0" class="graph" transform="scale(1 1) rotate(0) translate(4 24)">
<title>generatePages</title>
<polygon fill="white" stroke="none" points="-4,4 -4,-24 374,-24 374,4 -4,4"/>
<!-- Node1 -->
<g id="node1" class="node"><title>Node1</title>
<polygon fill="#bfbfbf" stroke="black" points="0.5,-0.5 0.5,-19.5 89.5,-19.5 89.5,-0.5 0.5,-0.5"/>
<text text-anchor="middle" x="45" y="-7.5" font-family="Helvetica,sans-Serif" font-size="10.00">generatePages</text>
</g>
<!-- Node2 -->
<g id="node2" class="node"><title>Node2</title>
<g id="a_node2"><a xlink:href="../../dc/d18/gh-pages_8js.html#a0c3cc40935cb8922a0d73e784c0d8f0a" target="_top" xlink:title="configureGHPages">
<polygon fill="white" stroke="black" points="126,-0.5 126,-19.5 230,-19.5 230,-0.5 126,-0.5"/>
<text text-anchor="middle" x="178" y="-7.5" font-family="Helvetica,sans-Serif" font-size="10.00">configureGHPages</text>
</a>
</g>
</g>
<!-- Node1&#45;&gt;Node2 -->
<g id="edge1" class="edge"><title>Node1&#45;&gt;Node2</title>
<path fill="none" stroke="midnightblue" d="M99.6258,-10C108.293,-10 117.247,-10 125.854,-10"/>
<polygon fill="midnightblue" stroke="midnightblue" points="99.6211,-6.5001 89.6211,-10 99.6211,-13.5001 99.6211,-6.5001"/>
</g>
<!-- Node3 -->
<g id="node3" class="node"><title>Node3</title>
<g id="a_node3"><a xlink:href="../../dc/d18/gh-pages_8js.html#a85a780309484e166f8eb00319236faba" target="_top" xlink:title="processRepository">
<polygon fill="white" stroke="black" points="266,-0.5 266,-19.5 370,-19.5 370,-0.5 266,-0.5"/>
<text text-anchor="middle" x="318" y="-7.5" font-family="Helvetica,sans-Serif" font-size="10.00">processRepository</text>
</a>
</g>
</g>
<!-- Node2&#45;&gt;Node3 -->
<g id="edge2" class="edge"><title>Node2&#45;&gt;Node3</title>
<path fill="none" stroke="midnightblue" d="M240.496,-10C248.872,-10 257.398,-10 265.571,-10"/>
<polygon fill="midnightblue" stroke="midnightblue" points="240.386,-6.5001 230.386,-10 240.386,-13.5001 240.386,-6.5001"/>
</g>
</g>
</svg>
