<?xml version="1.0" encoding="UTF-8" standalone="no"?>
<!DOCTYPE svg PUBLIC "-//W3C//DTD SVG 1.1//EN"
 "http://www.w3.org/Graphics/SVG/1.1/DTD/svg11.dtd">
<!-- Generated by graphviz version 2.36.0 (20140111.2315)
 -->
<!-- Title: replaceVariables Pages: 1 -->
<svg width="664pt" height="28pt"
 viewBox="0.00 0.00 664.00 28.00" xmlns="http://www.w3.org/2000/svg" xmlns:xlink="http://www.w3.org/1999/xlink">
<g id="graph0" class="graph" transform="scale(1 1) rotate(0) translate(4 24)">
<title>replaceVariables</title>
<polygon fill="white" stroke="none" points="-4,4 -4,-24 660,-24 660,4 -4,4"/>
<!-- Node1 -->
<g id="node1" class="node"><title>Node1</title>
<polygon fill="#bfbfbf" stroke="black" points="0.5,-0.5 0.5,-19.5 95.5,-19.5 95.5,-0.5 0.5,-0.5"/>
<text text-anchor="middle" x="48" y="-7.5" font-family="Helvetica,sans-Serif" font-size="10.00">replaceVariables</text>
</g>
<!-- Node2 -->
<g id="node2" class="node"><title>Node2</title>
<g id="a_node2"><a xlink:href="../../dc/d18/gh-pages_8js.html#a29484db4ebe37588414ecd694fb7ec67" target="_top" xlink:title="recursiveConfigCopy">
<polygon fill="white" stroke="black" points="132,-0.5 132,-19.5 246,-19.5 246,-0.5 132,-0.5"/>
<text text-anchor="middle" x="189" y="-7.5" font-family="Helvetica,sans-Serif" font-size="10.00">recursiveConfigCopy</text>
</a>
</g>
</g>
<!-- Node1&#45;&gt;Node2 -->
<g id="edge1" class="edge"><title>Node1&#45;&gt;Node2</title>
<path fill="none" stroke="midnightblue" d="M105.857,-10C114.343,-10 123.088,-10 131.565,-10"/>
<polygon fill="midnightblue" stroke="midnightblue" points="105.672,-6.5001 95.6717,-10 105.672,-13.5001 105.672,-6.5001"/>
</g>
<!-- Node3 -->
<g id="node3" class="node"><title>Node3</title>
<g id="a_node3"><a xlink:href="../../dc/d18/gh-pages_8js.html#a3842b26b063b5c4ec2c8eff339ee9235" target="_top" xlink:title="setPageContent">
<polygon fill="white" stroke="black" points="282.5,-0.5 282.5,-19.5 375.5,-19.5 375.5,-0.5 282.5,-0.5"/>
<text text-anchor="middle" x="329" y="-7.5" font-family="Helvetica,sans-Serif" font-size="10.00">setPageContent</text>
</a>
</g>
</g>
<!-- Node2&#45;&gt;Node3 -->
<g id="edge2" class="edge"><title>Node2&#45;&gt;Node3</title>
<path fill="none" stroke="midnightblue" d="M256.137,-10C265.053,-10 274.032,-10 282.479,-10"/>
<polygon fill="midnightblue" stroke="midnightblue" points="256.13,-6.5001 246.13,-10 256.13,-13.5001 256.13,-6.5001"/>
</g>
<!-- Node4 -->
<g id="node4" class="node"><title>Node4</title>
<g id="a_node4"><a xlink:href="../../dc/d18/gh-pages_8js.html#a0c3cc40935cb8922a0d73e784c0d8f0a" target="_top" xlink:title="configureGHPages">
<polygon fill="white" stroke="black" points="412,-0.5 412,-19.5 516,-19.5 516,-0.5 412,-0.5"/>
<text text-anchor="middle" x="464" y="-7.5" font-family="Helvetica,sans-Serif" font-size="10.00">configureGHPages</text>
</a>
</g>
</g>
<!-- Node3&#45;&gt;Node4 -->
<g id="edge3" class="edge"><title>Node3&#45;&gt;Node4</title>
<path fill="none" stroke="midnightblue" d="M386,-10C394.514,-10 403.263,-10 411.671,-10"/>
<polygon fill="midnightblue" stroke="midnightblue" points="385.771,-6.5001 375.771,-10 385.771,-13.5001 385.771,-6.5001"/>
</g>
<!-- Node5 -->
<g id="node5" class="node"><title>Node5</title>
<g id="a_node5"><a xlink:href="../../dc/d18/gh-pages_8js.html#a85a780309484e166f8eb00319236faba" target="_top" xlink:title="processRepository">
<polygon fill="white" stroke="black" points="552,-0.5 552,-19.5 656,-19.5 656,-0.5 552,-0.5"/>
<text text-anchor="middle" x="604" y="-7.5" font-family="Helvetica,sans-Serif" font-size="10.00">processRepository</text>
</a>
</g>
</g>
<!-- Node4&#45;&gt;Node5 -->
<g id="edge4" class="edge"><title>Node4&#45;&gt;Node5</title>
<path fill="none" stroke="midnightblue" d="M526.496,-10C534.872,-10 543.398,-10 551.571,-10"/>
<polygon fill="midnightblue" stroke="midnightblue" points="526.386,-6.5001 516.386,-10 526.386,-13.5001 526.386,-6.5001"/>
</g>
</g>
</svg>
