<?xml version="1.0" encoding="UTF-8" standalone="no"?>
<!DOCTYPE svg PUBLIC "-//W3C//DTD SVG 1.1//EN"
 "http://www.w3.org/Graphics/SVG/1.1/DTD/svg11.dtd">
<!-- Generated by graphviz version 2.36.0 (20140111.2315)
 -->
<!-- Title: require Pages: 1 -->
<svg width="308pt" height="66pt"
 viewBox="0.00 0.00 308.00 66.00" xmlns="http://www.w3.org/2000/svg" xmlns:xlink="http://www.w3.org/1999/xlink">
<g id="graph0" class="graph" transform="scale(1 1) rotate(0) translate(4 62)">
<title>require</title>
<polygon fill="white" stroke="none" points="-4,4 -4,-62 304,-62 304,4 -4,4"/>
<!-- Node1 -->
<g id="node1" class="node"><title>Node1</title>
<polygon fill="#bfbfbf" stroke="black" points="0,-19.5 0,-38.5 50,-38.5 50,-19.5 0,-19.5"/>
<text text-anchor="middle" x="25" y="-26.5" font-family="Helvetica,sans-Serif" font-size="10.00">require</text>
</g>
<!-- Node2 -->
<g id="node2" class="node"><title>Node2</title>
<g id="a_node2"><a xlink:href="../../d4/d29/git_8js.html#a5f63eea9ba6e1e31c5d2843172620457" target="_top" xlink:title="Git">
<polygon fill="white" stroke="black" points="108,-38.5 108,-57.5 138,-57.5 138,-38.5 108,-38.5"/>
<text text-anchor="middle" x="123" y="-45.5" font-family="Helvetica,sans-Serif" font-size="10.00">Git</text>
</a>
</g>
</g>
<!-- Node1&#45;&gt;Node2 -->
<g id="edge1" class="edge"><title>Node1&#45;&gt;Node2</title>
<path fill="none" stroke="midnightblue" d="M60.083,-35.7456C76.5363,-39.002 95.3777,-42.731 107.912,-45.2118"/>
<polygon fill="midnightblue" stroke="midnightblue" points="60.7141,-32.3027 50.2249,-33.7945 59.355,-39.1695 60.7141,-32.3027"/>
</g>
<!-- Node3 -->
<g id="node3" class="node"><title>Node3</title>
<g id="a_node3"><a xlink:href="../../df/d1e/doxygen_8js.html#a477763906d5e048aeed62e954c12b3e8" target="_top" xlink:title="runDoxygen">
<polygon fill="white" stroke="black" points="86,-0.5 86,-19.5 160,-19.5 160,-0.5 86,-0.5"/>
<text text-anchor="middle" x="123" y="-7.5" font-family="Helvetica,sans-Serif" font-size="10.00">runDoxygen</text>
</a>
</g>
</g>
<!-- Node1&#45;&gt;Node3 -->
<g id="edge2" class="edge"><title>Node1&#45;&gt;Node3</title>
<path fill="none" stroke="midnightblue" d="M60.3046,-22.2105C68.5779,-20.5731 77.4436,-18.8184 85.8006,-17.1645"/>
<polygon fill="midnightblue" stroke="midnightblue" points="59.355,-18.8305 50.2249,-24.2055 60.7141,-25.6973 59.355,-18.8305"/>
</g>
<!-- Node4 -->
<g id="node4" class="node"><title>Node4</title>
<g id="a_node4"><a xlink:href="../../df/d1e/doxygen_8js.html#a85a780309484e166f8eb00319236faba" target="_top" xlink:title="processRepository">
<polygon fill="white" stroke="black" points="196,-0.5 196,-19.5 300,-19.5 300,-0.5 196,-0.5"/>
<text text-anchor="middle" x="248" y="-7.5" font-family="Helvetica,sans-Serif" font-size="10.00">processRepository</text>
</a>
</g>
</g>
<!-- Node3&#45;&gt;Node4 -->
<g id="edge3" class="edge"><title>Node3&#45;&gt;Node4</title>
<path fill="none" stroke="midnightblue" d="M170.241,-10C178.644,-10 187.452,-10 195.983,-10"/>
<polygon fill="midnightblue" stroke="midnightblue" points="170.239,-6.5001 160.239,-10 170.239,-13.5001 170.239,-6.5001"/>
</g>
</g>
</svg>
