<?xml version="1.0" encoding="UTF-8" standalone="no"?>
<!DOCTYPE svg PUBLIC "-//W3C//DTD SVG 1.1//EN"
 "http://www.w3.org/Graphics/SVG/1.1/DTD/svg11.dtd">
<!-- Generated by graphviz version 2.36.0 (20140111.2315)
 -->
<!-- Title: /tmp/git/Tadimsky/GitHub&#45;Commit&#45;Tracker/repository/src Pages: 1 -->
<svg width="398pt" height="111pt"
 viewBox="0.00 0.00 398.00 111.00" xmlns="http://www.w3.org/2000/svg" xmlns:xlink="http://www.w3.org/1999/xlink">
<g id="graph0" class="graph" transform="scale(1 1) rotate(0) translate(4 107)">
<title>/tmp/git/Tadimsky/GitHub&#45;Commit&#45;Tracker/repository/src</title>
<polygon fill="white" stroke="none" points="-4,4 -4,-107 394,-107 394,4 -4,4"/>
<g id="clust1" class="cluster"><title>clusterdir_0e8336b40e0056e970aa50d9047b310b</title>
<g id="a_clust1"><a xlink:href="dir_0e8336b40e0056e970aa50d9047b310b.html" target="_top" xlink:title="repository">
<polygon fill="#ddddee" stroke="black" points="8,-8 8,-95 382,-95 382,-8 8,-8"/>
<text text-anchor="middle" x="195" y="-83" font-family="Helvetica,sans-Serif" font-size="10.00">repository</text>
</a>
</g>
</g>
<g id="clust2" class="cluster"><title>clusterdir_1ba79bc9ec8c37e4a8981ca0bc793fae</title>
<g id="a_clust2"><a xlink:href="dir_1ba79bc9ec8c37e4a8981ca0bc793fae.html" target="_top">
<polygon fill="#eeeeff" stroke="black" points="16,-16 16,-68 374,-68 374,-16 16,-16"/>
</a>
</g>
</g>
<!-- dir_1ba79bc9ec8c37e4a8981ca0bc793fae -->
<g id="node1" class="node"><title>dir_1ba79bc9ec8c37e4a8981ca0bc793fae</title>
<text text-anchor="middle" x="339" y="-39.5" font-family="Helvetica,sans-Serif" font-size="10.00">src</text>
</g>
<!-- dir_66514492582c83f9f220aa28a28f7d90 -->
<g id="node2" class="node"><title>dir_66514492582c83f9f220aa28a28f7d90</title>
<g id="a_node2"><a xlink:href="dir_66514492582c83f9f220aa28a28f7d90.html" target="_top" xlink:title="client">
<polygon fill="white" stroke="red" points="294,-60 240,-60 240,-24 294,-24 294,-60"/>
<text text-anchor="middle" x="267" y="-39.5" font-family="Helvetica,sans-Serif" font-size="10.00">client</text>
</a>
</g>
</g>
<!-- dir_c0d7551eccd82ca5d4711623e74ba472 -->
<g id="node3" class="node"><title>dir_c0d7551eccd82ca5d4711623e74ba472</title>
<g id="a_node3"><a xlink:href="dir_c0d7551eccd82ca5d4711623e74ba472.html" target="_top" xlink:title="routes">
<polygon fill="white" stroke="black" points="222,-60 168,-60 168,-24 222,-24 222,-60"/>
<text text-anchor="middle" x="195" y="-39.5" font-family="Helvetica,sans-Serif" font-size="10.00">routes</text>
</a>
</g>
</g>
<!-- dir_cbdc6f458853f48bfb50c3b818b96dfb -->
<g id="node4" class="node"><title>dir_cbdc6f458853f48bfb50c3b818b96dfb</title>
<g id="a_node4"><a xlink:href="dir_cbdc6f458853f48bfb50c3b818b96dfb.html" target="_top" xlink:title="test">
<polygon fill="white" stroke="black" points="150,-60 96,-60 96,-24 150,-24 150,-60"/>
<text text-anchor="middle" x="123" y="-39.5" font-family="Helvetica,sans-Serif" font-size="10.00">test</text>
</a>
</g>
</g>
<!-- dir_2e0d033358b0a15f9da7276a4de56fc1 -->
<g id="node5" class="node"><title>dir_2e0d033358b0a15f9da7276a4de56fc1</title>
<g id="a_node5"><a xlink:href="dir_2e0d033358b0a15f9da7276a4de56fc1.html" target="_top" xlink:title="utils">
<polygon fill="white" stroke="black" points="78,-60 24,-60 24,-24 78,-24 78,-60"/>
<text text-anchor="middle" x="51" y="-39.5" font-family="Helvetica,sans-Serif" font-size="10.00">utils</text>
</a>
</g>
</g>
</g>
</svg>
