<?xml version="1.0" encoding="UTF-8" standalone="no"?>
<!DOCTYPE svg PUBLIC "-//W3C//DTD SVG 1.1//EN"
 "http://www.w3.org/Graphics/SVG/1.1/DTD/svg11.dtd">
<!-- Generated by graphviz version 2.36.0 (20140111.2315)
 -->
<!-- Title: /tmp/git/Tadimsky/GitHub&#45;Commit&#45;Tracker/repository/repoTracker/packages/theme Pages: 1 -->
<svg width="254pt" height="111pt"
 viewBox="0.00 0.00 254.00 111.00" xmlns="http://www.w3.org/2000/svg" xmlns:xlink="http://www.w3.org/1999/xlink">
<g id="graph0" class="graph" transform="scale(1 1) rotate(0) translate(4 107)">
<title>/tmp/git/Tadimsky/GitHub&#45;Commit&#45;Tracker/repository/repoTracker/packages/theme</title>
<polygon fill="white" stroke="none" points="-4,4 -4,-107 250,-107 250,4 -4,4"/>
<g id="clust1" class="cluster"><title>clusterdir_4746da031f0b1105e85aa957531f3a49</title>
<g id="a_clust1"><a xlink:href="dir_4746da031f0b1105e85aa957531f3a49.html" target="_top" xlink:title="packages">
<polygon fill="#ddddee" stroke="black" points="8,-8 8,-95 238,-95 238,-8 8,-8"/>
<text text-anchor="middle" x="123" y="-83" font-family="Helvetica,sans-Serif" font-size="10.00">packages</text>
</a>
</g>
</g>
<g id="clust2" class="cluster"><title>clusterdir_79eba26fa3d697a118ea41c108932fa8</title>
<g id="a_clust2"><a xlink:href="dir_79eba26fa3d697a118ea41c108932fa8.html" target="_top">
<polygon fill="#eeeeff" stroke="black" points="16,-16 16,-68 230,-68 230,-16 16,-16"/>
</a>
</g>
</g>
<!-- dir_79eba26fa3d697a118ea41c108932fa8 -->
<g id="node1" class="node"><title>dir_79eba26fa3d697a118ea41c108932fa8</title>
<text text-anchor="middle" x="195" y="-39.5" font-family="Helvetica,sans-Serif" font-size="10.00">theme</text>
</g>
<!-- dir_8277073881e664c46dec46d1fb1940f6 -->
<g id="node2" class="node"><title>dir_8277073881e664c46dec46d1fb1940f6</title>
<g id="a_node2"><a xlink:href="dir_8277073881e664c46dec46d1fb1940f6.html" target="_top" xlink:title="public">
<polygon fill="white" stroke="red" points="150,-60 96,-60 96,-24 150,-24 150,-60"/>
<text text-anchor="middle" x="123" y="-39.5" font-family="Helvetica,sans-Serif" font-size="10.00">public</text>
</a>
</g>
</g>
<!-- dir_850588fe2067308428a81936b43f5e01 -->
<g id="node3" class="node"><title>dir_850588fe2067308428a81936b43f5e01</title>
<g id="a_node3"><a xlink:href="dir_850588fe2067308428a81936b43f5e01.html" target="_top" xlink:title="server">
<polygon fill="white" stroke="red" points="78,-60 24,-60 24,-24 78,-24 78,-60"/>
<text text-anchor="middle" x="51" y="-39.5" font-family="Helvetica,sans-Serif" font-size="10.00">server</text>
</a>
</g>
</g>
</g>
</svg>
