<?xml version="1.0" encoding="UTF-8" standalone="no"?>
<!DOCTYPE svg PUBLIC "-//W3C//DTD SVG 1.1//EN"
 "http://www.w3.org/Graphics/SVG/1.1/DTD/svg11.dtd">
<!-- Generated by graphviz version 2.36.0 (20140111.2315)
 -->
<!-- Title: /tmp/git/Tadimsky/GitHub&#45;Commit&#45;Tracker/repository/repoTracker Pages: 1 -->
<svg width="280pt" height="111pt"
 viewBox="0.00 0.00 280.00 111.00" xmlns="http://www.w3.org/2000/svg" xmlns:xlink="http://www.w3.org/1999/xlink">
<g id="graph0" class="graph" transform="scale(1 1) rotate(0) translate(4 107)">
<title>/tmp/git/Tadimsky/GitHub&#45;Commit&#45;Tracker/repository/repoTracker</title>
<polygon fill="white" stroke="none" points="-4,4 -4,-107 276,-107 276,4 -4,4"/>
<g id="clust1" class="cluster"><title>clusterdir_0e8336b40e0056e970aa50d9047b310b</title>
<g id="a_clust1"><a xlink:href="dir_0e8336b40e0056e970aa50d9047b310b.html" target="_top" xlink:title="repository">
<polygon fill="#ddddee" stroke="black" points="8,-8 8,-95 264,-95 264,-8 8,-8"/>
<text text-anchor="middle" x="136" y="-83" font-family="Helvetica,sans-Serif" font-size="10.00">repository</text>
</a>
</g>
</g>
<g id="clust2" class="cluster"><title>clusterdir_a6f8b4db4b724955f7ef320c7116cc79</title>
<g id="a_clust2"><a xlink:href="dir_a6f8b4db4b724955f7ef320c7116cc79.html" target="_top">
<polygon fill="#eeeeff" stroke="black" points="16,-16 16,-68 256,-68 256,-16 16,-16"/>
</a>
</g>
</g>
<!-- dir_a6f8b4db4b724955f7ef320c7116cc79 -->
<g id="node1" class="node"><title>dir_a6f8b4db4b724955f7ef320c7116cc79</title>
<text text-anchor="middle" x="212" y="-39.5" font-family="Helvetica,sans-Serif" font-size="10.00">repoTracker</text>
</g>
<!-- dir_6e03388b431456c7a03e1ac79f8c5b84 -->
<g id="node2" class="node"><title>dir_6e03388b431456c7a03e1ac79f8c5b84</title>
<g id="a_node2"><a xlink:href="dir_6e03388b431456c7a03e1ac79f8c5b84.html" target="_top" xlink:title="config">
<polygon fill="white" stroke="red" points="158,-60 104,-60 104,-24 158,-24 158,-60"/>
<text text-anchor="middle" x="131" y="-39.5" font-family="Helvetica,sans-Serif" font-size="10.00">config</text>
</a>
</g>
</g>
<!-- dir_4746da031f0b1105e85aa957531f3a49 -->
<g id="node3" class="node"><title>dir_4746da031f0b1105e85aa957531f3a49</title>
<g id="a_node3"><a xlink:href="dir_4746da031f0b1105e85aa957531f3a49.html" target="_top" xlink:title="packages">
<polygon fill="white" stroke="red" points="85.5,-60 24.5,-60 24.5,-24 85.5,-24 85.5,-60"/>
<text text-anchor="middle" x="55" y="-39.5" font-family="Helvetica,sans-Serif" font-size="10.00">packages</text>
</a>
</g>
</g>
</g>
</svg>
