<?xml version="1.0" encoding="UTF-8" standalone="no"?>
<!DOCTYPE svg PUBLIC "-//W3C//DTD SVG 1.1//EN"
 "http://www.w3.org/Graphics/SVG/1.1/DTD/svg11.dtd">
<!-- Generated by graphviz version 2.36.0 (20140111.2315)
 -->
<!-- Title: /tmp/git/Tadimsky/GitHub&#45;Commit&#45;Tracker/repository/repoTracker/packages/users/server Pages: 1 -->
<svg width="412pt" height="111pt"
 viewBox="0.00 0.00 412.00 111.00" xmlns="http://www.w3.org/2000/svg" xmlns:xlink="http://www.w3.org/1999/xlink">
<g id="graph0" class="graph" transform="scale(1 1) rotate(0) translate(4 107)">
<title>/tmp/git/Tadimsky/GitHub&#45;Commit&#45;Tracker/repository/repoTracker/packages/users/server</title>
<polygon fill="white" stroke="none" points="-4,4 -4,-107 408,-107 408,4 -4,4"/>
<g id="clust1" class="cluster"><title>clusterdir_6ee970155d79961a90903ec4887b8118</title>
<g id="a_clust1"><a xlink:href="dir_6ee970155d79961a90903ec4887b8118.html" target="_top" xlink:title="users">
<polygon fill="#ddddee" stroke="black" points="8,-8 8,-95 396,-95 396,-8 8,-8"/>
<text text-anchor="middle" x="202" y="-83" font-family="Helvetica,sans-Serif" font-size="10.00">users</text>
</a>
</g>
</g>
<g id="clust2" class="cluster"><title>clusterdir_8715a46feb45db4ca55f914657c140a0</title>
<g id="a_clust2"><a xlink:href="dir_8715a46feb45db4ca55f914657c140a0.html" target="_top">
<polygon fill="#eeeeff" stroke="black" points="16,-16 16,-68 388,-68 388,-16 16,-16"/>
</a>
</g>
</g>
<!-- dir_8715a46feb45db4ca55f914657c140a0 -->
<g id="node1" class="node"><title>dir_8715a46feb45db4ca55f914657c140a0</title>
<text text-anchor="middle" x="353" y="-39.5" font-family="Helvetica,sans-Serif" font-size="10.00">server</text>
</g>
<!-- dir_59c0c10be5422614a567993033c529cd -->
<g id="node2" class="node"><title>dir_59c0c10be5422614a567993033c529cd</title>
<g id="a_node2"><a xlink:href="dir_59c0c10be5422614a567993033c529cd.html" target="_top" xlink:title="controllers">
<polygon fill="white" stroke="black" points="307.25,-60 240.75,-60 240.75,-24 307.25,-24 307.25,-60"/>
<text text-anchor="middle" x="274" y="-39.5" font-family="Helvetica,sans-Serif" font-size="10.00">controllers</text>
</a>
</g>
</g>
<!-- dir_d2a8fc1f15c5d27c4fda204f99798e46 -->
<g id="node3" class="node"><title>dir_d2a8fc1f15c5d27c4fda204f99798e46</title>
<g id="a_node3"><a xlink:href="dir_d2a8fc1f15c5d27c4fda204f99798e46.html" target="_top" xlink:title="models">
<polygon fill="white" stroke="black" points="222,-60 168,-60 168,-24 222,-24 222,-60"/>
<text text-anchor="middle" x="195" y="-39.5" font-family="Helvetica,sans-Serif" font-size="10.00">models</text>
</a>
</g>
</g>
<!-- dir_d0117aaeb248567a128fcef8195150c6 -->
<g id="node4" class="node"><title>dir_d0117aaeb248567a128fcef8195150c6</title>
<g id="a_node4"><a xlink:href="dir_d0117aaeb248567a128fcef8195150c6.html" target="_top" xlink:title="routes">
<polygon fill="white" stroke="black" points="150,-60 96,-60 96,-24 150,-24 150,-60"/>
<text text-anchor="middle" x="123" y="-39.5" font-family="Helvetica,sans-Serif" font-size="10.00">routes</text>
</a>
</g>
</g>
<!-- dir_30d63fd978356b34054ea4e3d0f80a52 -->
<g id="node5" class="node"><title>dir_30d63fd978356b34054ea4e3d0f80a52</title>
<g id="a_node5"><a xlink:href="dir_30d63fd978356b34054ea4e3d0f80a52.html" target="_top" xlink:title="tests">
<polygon fill="white" stroke="black" points="78,-60 24,-60 24,-24 78,-24 78,-60"/>
<text text-anchor="middle" x="51" y="-39.5" font-family="Helvetica,sans-Serif" font-size="10.00">tests</text>
</a>
</g>
</g>
</g>
</svg>
