<?xml version="1.0" encoding="UTF-8" standalone="no"?>
<!DOCTYPE svg PUBLIC "-//W3C//DTD SVG 1.1//EN"
 "http://www.w3.org/Graphics/SVG/1.1/DTD/svg11.dtd">
<!-- Generated by graphviz version 2.36.0 (20140111.2315)
 -->
<!-- Title: /tmp/git/Tadimsky/GitHub&#45;Commit&#45;Tracker/repository/repoTracker/packages/system/public Pages: 1 -->
<svg width="414pt" height="111pt"
 viewBox="0.00 0.00 414.00 111.00" xmlns="http://www.w3.org/2000/svg" xmlns:xlink="http://www.w3.org/1999/xlink">
<g id="graph0" class="graph" transform="scale(1 1) rotate(0) translate(4 107)">
<title>/tmp/git/Tadimsky/GitHub&#45;Commit&#45;Tracker/repository/repoTracker/packages/system/public</title>
<polygon fill="white" stroke="none" points="-4,4 -4,-107 410,-107 410,4 -4,4"/>
<g id="clust1" class="cluster"><title>clusterdir_1f02390e555e56a60978321bcbdcb9b5</title>
<g id="a_clust1"><a xlink:href="dir_1f02390e555e56a60978321bcbdcb9b5.html" target="_top" xlink:title="system">
<polygon fill="#ddddee" stroke="black" points="8,-8 8,-95 398,-95 398,-8 8,-8"/>
<text text-anchor="middle" x="203" y="-83" font-family="Helvetica,sans-Serif" font-size="10.00">system</text>
</a>
</g>
</g>
<g id="clust2" class="cluster"><title>clusterdir_b9a9f5ca0460179c185dab1c874b8655</title>
<g id="a_clust2"><a xlink:href="dir_b9a9f5ca0460179c185dab1c874b8655.html" target="_top">
<polygon fill="#eeeeff" stroke="black" points="16,-16 16,-68 390,-68 390,-16 16,-16"/>
</a>
</g>
</g>
<!-- dir_b9a9f5ca0460179c185dab1c874b8655 -->
<g id="node1" class="node"><title>dir_b9a9f5ca0460179c185dab1c874b8655</title>
<text text-anchor="middle" x="355" y="-39.5" font-family="Helvetica,sans-Serif" font-size="10.00">public</text>
</g>
<!-- dir_24de998b47f71da3fb47a5c09e3b9632 -->
<g id="node2" class="node"><title>dir_24de998b47f71da3fb47a5c09e3b9632</title>
<g id="a_node2"><a xlink:href="dir_24de998b47f71da3fb47a5c09e3b9632.html" target="_top" xlink:title="controllers">
<polygon fill="white" stroke="black" points="309.25,-60 242.75,-60 242.75,-24 309.25,-24 309.25,-60"/>
<text text-anchor="middle" x="276" y="-39.5" font-family="Helvetica,sans-Serif" font-size="10.00">controllers</text>
</a>
</g>
</g>
<!-- dir_7c9656a754ca4a5aa046d3152910ba9f -->
<g id="node3" class="node"><title>dir_7c9656a754ca4a5aa046d3152910ba9f</title>
<g id="a_node3"><a xlink:href="dir_7c9656a754ca4a5aa046d3152910ba9f.html" target="_top" xlink:title="routes">
<polygon fill="white" stroke="black" points="224,-60 170,-60 170,-24 224,-24 224,-60"/>
<text text-anchor="middle" x="197" y="-39.5" font-family="Helvetica,sans-Serif" font-size="10.00">routes</text>
</a>
</g>
</g>
<!-- dir_14970a985e3b452cb40ee2174f9787d8 -->
<g id="node4" class="node"><title>dir_14970a985e3b452cb40ee2174f9787d8</title>
<g id="a_node4"><a xlink:href="dir_14970a985e3b452cb40ee2174f9787d8.html" target="_top" xlink:title="services">
<polygon fill="white" stroke="black" points="151.5,-60 96.5,-60 96.5,-24 151.5,-24 151.5,-60"/>
<text text-anchor="middle" x="124" y="-39.5" font-family="Helvetica,sans-Serif" font-size="10.00">services</text>
</a>
</g>
</g>
<!-- dir_8a9957cb94ed2c0ca7b3ab3e7ef63b66 -->
<g id="node5" class="node"><title>dir_8a9957cb94ed2c0ca7b3ab3e7ef63b66</title>
<g id="a_node5"><a xlink:href="dir_8a9957cb94ed2c0ca7b3ab3e7ef63b66.html" target="_top" xlink:title="tests">
<polygon fill="white" stroke="black" points="78,-60 24,-60 24,-24 78,-24 78,-60"/>
<text text-anchor="middle" x="51" y="-39.5" font-family="Helvetica,sans-Serif" font-size="10.00">tests</text>
</a>
</g>
</g>
</g>
</svg>
