<?xml version="1.0" encoding="UTF-8" standalone="no"?>
<!DOCTYPE svg PUBLIC "-//W3C//DTD SVG 1.1//EN"
 "http://www.w3.org/Graphics/SVG/1.1/DTD/svg11.dtd">
<!-- Generated by graphviz version 2.36.0 (20140111.2315)
 -->
<!-- Title: /tmp/git/Tadimsky/GitHub&#45;Commit&#45;Tracker/repository/src/client Pages: 1 -->
<svg width="254pt" height="111pt"
 viewBox="0.00 0.00 254.00 111.00" xmlns="http://www.w3.org/2000/svg" xmlns:xlink="http://www.w3.org/1999/xlink">
<g id="graph0" class="graph" transform="scale(1 1) rotate(0) translate(4 107)">
<title>/tmp/git/Tadimsky/GitHub&#45;Commit&#45;Tracker/repository/src/client</title>
<polygon fill="white" stroke="none" points="-4,4 -4,-107 250,-107 250,4 -4,4"/>
<g id="clust1" class="cluster"><title>clusterdir_1ba79bc9ec8c37e4a8981ca0bc793fae</title>
<g id="a_clust1"><a xlink:href="dir_1ba79bc9ec8c37e4a8981ca0bc793fae.html" target="_top" xlink:title="src">
<polygon fill="#ddddee" stroke="black" points="8,-8 8,-95 238,-95 238,-8 8,-8"/>
<text text-anchor="middle" x="123" y="-83" font-family="Helvetica,sans-Serif" font-size="10.00">src</text>
</a>
</g>
</g>
<g id="clust2" class="cluster"><title>clusterdir_66514492582c83f9f220aa28a28f7d90</title>
<g id="a_clust2"><a xlink:href="dir_66514492582c83f9f220aa28a28f7d90.html" target="_top">
<polygon fill="#eeeeff" stroke="black" points="16,-16 16,-68 230,-68 230,-16 16,-16"/>
</a>
</g>
</g>
<!-- dir_66514492582c83f9f220aa28a28f7d90 -->
<g id="node1" class="node"><title>dir_66514492582c83f9f220aa28a28f7d90</title>
<text text-anchor="middle" x="195" y="-39.5" font-family="Helvetica,sans-Serif" font-size="10.00">client</text>
</g>
<!-- dir_890f7426c26675bff76c4ec29a2ba560 -->
<g id="node2" class="node"><title>dir_890f7426c26675bff76c4ec29a2ba560</title>
<g id="a_node2"><a xlink:href="dir_890f7426c26675bff76c4ec29a2ba560.html" target="_top" xlink:title="app">
<polygon fill="white" stroke="red" points="150,-60 96,-60 96,-24 150,-24 150,-60"/>
<text text-anchor="middle" x="123" y="-39.5" font-family="Helvetica,sans-Serif" font-size="10.00">app</text>
</a>
</g>
</g>
<!-- dir_629803cf55f05be12fd8bce36afd816a -->
<g id="node3" class="node"><title>dir_629803cf55f05be12fd8bce36afd816a</title>
<g id="a_node3"><a xlink:href="dir_629803cf55f05be12fd8bce36afd816a.html" target="_top" xlink:title="test">
<polygon fill="white" stroke="red" points="78,-60 24,-60 24,-24 78,-24 78,-60"/>
<text text-anchor="middle" x="51" y="-39.5" font-family="Helvetica,sans-Serif" font-size="10.00">test</text>
</a>
</g>
</g>
</g>
</svg>
