<?xml version="1.0" encoding="UTF-8" standalone="no"?>
<!DOCTYPE svg PUBLIC "-//W3C//DTD SVG 1.1//EN"
 "http://www.w3.org/Graphics/SVG/1.1/DTD/svg11.dtd">
<!-- Generated by graphviz version 2.36.0 (20140111.2315)
 -->
<!-- Title: /tmp/git/Tadimsky/GitHub&#45;Commit&#45;Tracker/repository Pages: 1 -->
<svg width="284pt" height="111pt"
 viewBox="0.00 0.00 284.00 111.00" xmlns="http://www.w3.org/2000/svg" xmlns:xlink="http://www.w3.org/1999/xlink">
<g id="graph0" class="graph" transform="scale(1 1) rotate(0) translate(4 107)">
<title>/tmp/git/Tadimsky/GitHub&#45;Commit&#45;Tracker/repository</title>
<polygon fill="white" stroke="none" points="-4,4 -4,-107 280,-107 280,4 -4,4"/>
<g id="clust1" class="cluster"><title>clusterdir_06208855065a63e8d5449b15e833ff31</title>
<g id="a_clust1"><a xlink:href="dir_06208855065a63e8d5449b15e833ff31.html" target="_top" xlink:title="GitHub&#45;Commit&#45;Tracker">
<polygon fill="#ddddee" stroke="black" points="8,-8 8,-95 268,-95 268,-8 8,-8"/>
<text text-anchor="middle" x="138" y="-83" font-family="Helvetica,sans-Serif" font-size="10.00">GitHub&#45;Commit&#45;Tracker</text>
</a>
</g>
</g>
<g id="clust2" class="cluster"><title>clusterdir_0e8336b40e0056e970aa50d9047b310b</title>
<g id="a_clust2"><a xlink:href="dir_0e8336b40e0056e970aa50d9047b310b.html" target="_top">
<polygon fill="#eeeeff" stroke="black" points="16,-16 16,-68 260,-68 260,-16 16,-16"/>
</a>
</g>
</g>
<!-- dir_0e8336b40e0056e970aa50d9047b310b -->
<g id="node1" class="node"><title>dir_0e8336b40e0056e970aa50d9047b310b</title>
<text text-anchor="middle" x="219" y="-39.5" font-family="Helvetica,sans-Serif" font-size="10.00">repository</text>
</g>
<!-- dir_a6f8b4db4b724955f7ef320c7116cc79 -->
<g id="node2" class="node"><title>dir_a6f8b4db4b724955f7ef320c7116cc79</title>
<g id="a_node2"><a xlink:href="dir_a6f8b4db4b724955f7ef320c7116cc79.html" target="_top" xlink:title="repoTracker">
<polygon fill="white" stroke="red" points="168,-60 96,-60 96,-24 168,-24 168,-60"/>
<text text-anchor="middle" x="132" y="-39.5" font-family="Helvetica,sans-Serif" font-size="10.00">repoTracker</text>
</a>
</g>
</g>
<!-- dir_1ba79bc9ec8c37e4a8981ca0bc793fae -->
<g id="node3" class="node"><title>dir_1ba79bc9ec8c37e4a8981ca0bc793fae</title>
<g id="a_node3"><a xlink:href="dir_1ba79bc9ec8c37e4a8981ca0bc793fae.html" target="_top" xlink:title="src">
<polygon fill="white" stroke="red" points="78,-60 24,-60 24,-24 78,-24 78,-60"/>
<text text-anchor="middle" x="51" y="-39.5" font-family="Helvetica,sans-Serif" font-size="10.00">src</text>
</a>
</g>
</g>
</g>
</svg>
