<?xml version="1.0" encoding="UTF-8" standalone="no"?>
<!DOCTYPE svg PUBLIC "-//W3C//DTD SVG 1.1//EN"
 "http://www.w3.org/Graphics/SVG/1.1/DTD/svg11.dtd">
<!-- Generated by graphviz version 2.36.0 (20140111.2315)
 -->
<!-- Title: /tmp/git/Tadimsky/GitHub&#45;Commit&#45;Tracker/repository/repoTracker/packages Pages: 1 -->
<svg width="478pt" height="111pt"
 viewBox="0.00 0.00 478.00 111.00" xmlns="http://www.w3.org/2000/svg" xmlns:xlink="http://www.w3.org/1999/xlink">
<g id="graph0" class="graph" transform="scale(1 1) rotate(0) translate(4 107)">
<title>/tmp/git/Tadimsky/GitHub&#45;Commit&#45;Tracker/repository/repoTracker/packages</title>
<polygon fill="white" stroke="none" points="-4,4 -4,-107 474,-107 474,4 -4,4"/>
<g id="clust1" class="cluster"><title>clusterdir_a6f8b4db4b724955f7ef320c7116cc79</title>
<g id="a_clust1"><a xlink:href="dir_a6f8b4db4b724955f7ef320c7116cc79.html" target="_top" xlink:title="repoTracker">
<polygon fill="#ddddee" stroke="black" points="8,-8 8,-95 462,-95 462,-8 8,-8"/>
<text text-anchor="middle" x="235" y="-83" font-family="Helvetica,sans-Serif" font-size="10.00">repoTracker</text>
</a>
</g>
</g>
<g id="clust2" class="cluster"><title>clusterdir_4746da031f0b1105e85aa957531f3a49</title>
<g id="a_clust2"><a xlink:href="dir_4746da031f0b1105e85aa957531f3a49.html" target="_top">
<polygon fill="#eeeeff" stroke="black" points="16,-16 16,-68 454,-68 454,-16 16,-16"/>
</a>
</g>
</g>
<!-- dir_4746da031f0b1105e85aa957531f3a49 -->
<g id="node1" class="node"><title>dir_4746da031f0b1105e85aa957531f3a49</title>
<text text-anchor="middle" x="415" y="-39.5" font-family="Helvetica,sans-Serif" font-size="10.00">packages</text>
</g>
<!-- dir_e21f9815ea2e4af1704d300022e5cae2 -->
<g id="node2" class="node"><title>dir_e21f9815ea2e4af1704d300022e5cae2</title>
<g id="a_node2"><a xlink:href="dir_e21f9815ea2e4af1704d300022e5cae2.html" target="_top" xlink:title="access">
<polygon fill="white" stroke="red" points="366,-60 312,-60 312,-24 366,-24 366,-60"/>
<text text-anchor="middle" x="339" y="-39.5" font-family="Helvetica,sans-Serif" font-size="10.00">access</text>
</a>
</g>
</g>
<!-- dir_ce0ea53c462af6a5ee918c48321f079f -->
<g id="node3" class="node"><title>dir_ce0ea53c462af6a5ee918c48321f079f</title>
<g id="a_node3"><a xlink:href="dir_ce0ea53c462af6a5ee918c48321f079f.html" target="_top" xlink:title="articles">
<polygon fill="white" stroke="red" points="294,-60 240,-60 240,-24 294,-24 294,-60"/>
<text text-anchor="middle" x="267" y="-39.5" font-family="Helvetica,sans-Serif" font-size="10.00">articles</text>
</a>
</g>
</g>
<!-- dir_1f02390e555e56a60978321bcbdcb9b5 -->
<g id="node4" class="node"><title>dir_1f02390e555e56a60978321bcbdcb9b5</title>
<g id="a_node4"><a xlink:href="dir_1f02390e555e56a60978321bcbdcb9b5.html" target="_top" xlink:title="system">
<polygon fill="white" stroke="red" points="222,-60 168,-60 168,-24 222,-24 222,-60"/>
<text text-anchor="middle" x="195" y="-39.5" font-family="Helvetica,sans-Serif" font-size="10.00">system</text>
</a>
</g>
</g>
<!-- dir_79eba26fa3d697a118ea41c108932fa8 -->
<g id="node5" class="node"><title>dir_79eba26fa3d697a118ea41c108932fa8</title>
<g id="a_node5"><a xlink:href="dir_79eba26fa3d697a118ea41c108932fa8.html" target="_top" xlink:title="theme">
<polygon fill="white" stroke="red" points="150,-60 96,-60 96,-24 150,-24 150,-60"/>
<text text-anchor="middle" x="123" y="-39.5" font-family="Helvetica,sans-Serif" font-size="10.00">theme</text>
</a>
</g>
</g>
<!-- dir_6ee970155d79961a90903ec4887b8118 -->
<g id="node6" class="node"><title>dir_6ee970155d79961a90903ec4887b8118</title>
<g id="a_node6"><a xlink:href="dir_6ee970155d79961a90903ec4887b8118.html" target="_top" xlink:title="users">
<polygon fill="white" stroke="red" points="78,-60 24,-60 24,-24 78,-24 78,-60"/>
<text text-anchor="middle" x="51" y="-39.5" font-family="Helvetica,sans-Serif" font-size="10.00">users</text>
</a>
</g>
</g>
</g>
</svg>
