<?xml version="1.0" encoding="UTF-8" standalone="no"?>
<!DOCTYPE svg PUBLIC "-//W3C//DTD SVG 1.1//EN"
 "http://www.w3.org/Graphics/SVG/1.1/DTD/svg11.dtd">
<!-- Generated by graphviz version 2.36.0 (20140111.2315)
 -->
<!-- Title: /tmp/git/Tadimsky/GitHub&#45;Commit&#45;Tracker/repository/repoTracker/packages/theme/public Pages: 1 -->
<svg width="342pt" height="111pt"
 viewBox="0.00 0.00 342.00 111.00" xmlns="http://www.w3.org/2000/svg" xmlns:xlink="http://www.w3.org/1999/xlink">
<g id="graph0" class="graph" transform="scale(1 1) rotate(0) translate(4 107)">
<title>/tmp/git/Tadimsky/GitHub&#45;Commit&#45;Tracker/repository/repoTracker/packages/theme/public</title>
<polygon fill="white" stroke="none" points="-4,4 -4,-107 338,-107 338,4 -4,4"/>
<g id="clust1" class="cluster"><title>clusterdir_79eba26fa3d697a118ea41c108932fa8</title>
<g id="a_clust1"><a xlink:href="dir_79eba26fa3d697a118ea41c108932fa8.html" target="_top" xlink:title="theme">
<polygon fill="#ddddee" stroke="black" points="8,-8 8,-95 326,-95 326,-8 8,-8"/>
<text text-anchor="middle" x="167" y="-83" font-family="Helvetica,sans-Serif" font-size="10.00">theme</text>
</a>
</g>
</g>
<g id="clust2" class="cluster"><title>clusterdir_8277073881e664c46dec46d1fb1940f6</title>
<g id="a_clust2"><a xlink:href="dir_8277073881e664c46dec46d1fb1940f6.html" target="_top">
<polygon fill="#eeeeff" stroke="black" points="16,-16 16,-68 318,-68 318,-16 16,-16"/>
</a>
</g>
</g>
<!-- dir_8277073881e664c46dec46d1fb1940f6 -->
<g id="node1" class="node"><title>dir_8277073881e664c46dec46d1fb1940f6</title>
<text text-anchor="middle" x="283" y="-39.5" font-family="Helvetica,sans-Serif" font-size="10.00">public</text>
</g>
<!-- dir_3ff7a1765e35381357864a80df5ea7a3 -->
<g id="node2" class="node"><title>dir_3ff7a1765e35381357864a80df5ea7a3</title>
<g id="a_node2"><a xlink:href="dir_3ff7a1765e35381357864a80df5ea7a3.html" target="_top" xlink:title="controllers">
<polygon fill="white" stroke="black" points="237.25,-60 170.75,-60 170.75,-24 237.25,-24 237.25,-60"/>
<text text-anchor="middle" x="204" y="-39.5" font-family="Helvetica,sans-Serif" font-size="10.00">controllers</text>
</a>
</g>
</g>
<!-- dir_a122f9deaa79eaeeb7d4d4260fd18866 -->
<g id="node3" class="node"><title>dir_a122f9deaa79eaeeb7d4d4260fd18866</title>
<g id="a_node3"><a xlink:href="dir_a122f9deaa79eaeeb7d4d4260fd18866.html" target="_top" xlink:title="routes">
<polygon fill="white" stroke="black" points="152,-60 98,-60 98,-24 152,-24 152,-60"/>
<text text-anchor="middle" x="125" y="-39.5" font-family="Helvetica,sans-Serif" font-size="10.00">routes</text>
</a>
</g>
</g>
<!-- dir_cdd989329caefc58dcee078da3244f4e -->
<g id="node4" class="node"><title>dir_cdd989329caefc58dcee078da3244f4e</title>
<g id="a_node4"><a xlink:href="dir_cdd989329caefc58dcee078da3244f4e.html" target="_top" xlink:title="services">
<polygon fill="white" stroke="black" points="79.5,-60 24.5,-60 24.5,-24 79.5,-24 79.5,-60"/>
<text text-anchor="middle" x="52" y="-39.5" font-family="Helvetica,sans-Serif" font-size="10.00">services</text>
</a>
</g>
</g>
</g>
</svg>
